<?xml version="1.0" encoding="UTF-8" standalone="no"?><!DOCTYPE svg PUBLIC "-//W3C//DTD SVG 1.1//EN" "http://www.w3.org/Graphics/SVG/1.1/DTD/svg11.dtd"><svg width="100%" height="100%" viewBox="0 0 1489 1371" version="1.1" xmlns="http://www.w3.org/2000/svg" xmlns:xlink="http://www.w3.org/1999/xlink" xml:space="preserve" xmlns:serif="http://www.serif.com/" style="fill-rule:evenodd;clip-rule:evenodd;stroke-linecap:round;"><path id="rect5082" d="M1479.27,7.374l-0,207.964c-0,1.173 -0.953,2.126 -2.126,2.126l-1470.67,0c-1.173,0 -2.126,-0.953 -2.126,-2.126l0,-207.964c0,-1.174 0.953,-2.126 2.126,-2.126l1470.67,-0c1.173,-0 2.126,0.952 2.126,2.126Z" style="stroke:#000;stroke-width:2.05px;"/><path id="rect5082-8" d="M1477.68,1156.48l0,207.966c0,1.173 -0.952,2.126 -2.126,2.126l-1469.08,-0c-1.173,-0 -2.126,-0.953 -2.126,-2.126l0,-207.966c0,-1.173 0.953,-2.126 2.126,-2.126l1469.08,0c1.174,0 2.126,0.953 2.126,2.126Z" style="stroke:#000;stroke-width:2.05px;"/><path id="rect5120" d="M39.183,7.41l-0,1338.14c-0,1.173 -0.953,2.126 -2.126,2.126l-30.548,-0c-1.174,-0 -2.126,-0.953 -2.126,-2.126l-0,-1338.14c-0,-1.173 0.952,-2.126 2.126,-2.126l30.548,0c1.173,0 2.126,0.953 2.126,2.126Z" style="stroke:#000;stroke-width:2.13px;"/><path id="rect5120-2" d="M1483.8,6.538l0,1356.28c0,1.173 -0.952,2.126 -2.126,2.126l-30.548,-0c-1.173,-0 -2.126,-0.953 -2.126,-2.126l0,-1356.28c0,-1.173 0.953,-2.126 2.126,-2.126l30.548,0c1.174,0 2.126,0.953 2.126,2.126Z" style="stroke:#000;stroke-width:2.14px;"/><path id="rect5149" d="M108.252,98.549l0,65.906c0,11.734 -9.526,21.26 -21.259,21.26l-29.764,-0c-11.734,-0 -21.26,-9.526 -21.26,-21.26l-0,-65.906c-0,-11.733 9.526,-21.259 21.26,-21.259l29.764,-0c11.733,-0 21.259,9.526 21.259,21.259Z" style="fill:#fff;"/><path id="rect5149-2" d="M291.087,98.549l-0,65.906c-0,11.734 -9.526,21.26 -21.26,21.26l-29.764,-0c-11.733,-0 -21.26,-9.526 -21.26,-21.26l0,-65.906c0,-11.733 9.527,-21.259 21.26,-21.259l29.764,-0c11.734,-0 21.26,9.526 21.26,21.259Z" style="fill:#fff;"/><path id="rect5149-4" d="M473.922,98.549l-0,65.906c-0,11.734 -9.527,21.26 -21.26,21.26l-29.764,-0c-11.734,-0 -21.26,-9.526 -21.26,-21.26l0,-65.906c0,-11.733 9.526,-21.259 21.26,-21.259l29.764,-0c11.733,-0 21.26,9.526 21.26,21.259Z" style="fill:#fff;"/><path id="rect5149-2-3" d="M656.756,98.549l0,65.906c0,11.734 -9.526,21.26 -21.26,21.26l-29.763,-0c-11.734,-0 -21.26,-9.526 -21.26,-21.26l-0,-65.906c-0,-11.733 9.526,-21.259 21.26,-21.259l29.763,-0c11.734,-0 21.26,9.526 21.26,21.259Z" style="fill:#fff;"/><path id="rect5149-6" d="M839.591,98.549l-0,65.906c-0,11.734 -9.526,21.26 -21.26,21.26l-29.764,-0c-11.733,-0 -21.26,-9.526 -21.26,-21.26l0,-65.906c0,-11.733 9.527,-21.259 21.26,-21.259l29.764,-0c11.734,-0 21.26,9.526 21.26,21.259Z" style="fill:#fff;"/><path id="rect5149-2-8" d="M1022.43,98.549l-0,65.906c-0,11.734 -9.527,21.26 -21.26,21.26l-29.764,-0c-11.734,-0 -21.26,-9.526 -21.26,-21.26l0,-65.906c0,-11.733 9.526,-21.259 21.26,-21.259l29.764,-0c11.733,-0 21.26,9.526 21.26,21.259Z" style="fill:#fff;"/><path id="rect5149-4-4" d="M1205.26,98.549l0,65.906c0,11.734 -9.526,21.26 -21.26,21.26l-29.763,-0c-11.734,-0 -21.26,-9.526 -21.26,-21.26l-0,-65.906c-0,-11.733 9.526,-21.259 21.26,-21.259l29.763,-0c11.734,-0 21.26,9.526 21.26,21.259Z" style="fill:#fff;"/><path id="rect5149-2-3-0" d="M1388.1,98.549l-0,65.906c-0,11.734 -9.526,21.26 -21.26,21.26l-29.764,-0c-11.733,-0 -21.26,-9.526 -21.26,-21.26l0,-65.906c0,-11.733 9.527,-21.259 21.26,-21.259l29.764,-0c11.734,-0 21.26,9.526 21.26,21.259Z" style="fill:#fff;"/><path id="rect5149-62" d="M108.252,1208.31l0,65.906c0,11.733 -9.526,21.26 -21.259,21.26l-29.764,-0c-11.734,-0 -21.26,-9.527 -21.26,-21.26l-0,-65.906c-0,-11.733 9.526,-21.26 21.26,-21.26l29.764,0c11.733,0 21.259,9.527 21.259,21.26Z" style="fill:#fff;"/><path id="rect5149-2-4" d="M291.087,1208.31l0,65.906c0,11.733 -9.526,21.26 -21.26,21.26l-29.764,-0c-11.733,-0 -21.259,-9.527 -21.259,-21.26l-0,-65.906c-0,-11.733 9.526,-21.26 21.259,-21.26l29.764,0c11.734,0 21.26,9.527 21.26,21.26Z" style="fill:#fff;"/><path id="rect5149-4-6" d="M473.922,1208.31l-0,65.906c-0,11.733 -9.527,21.26 -21.26,21.26l-29.764,-0c-11.734,-0 -21.26,-9.527 -21.26,-21.26l0,-65.906c0,-11.733 9.526,-21.26 21.26,-21.26l29.764,0c11.733,0 21.26,9.527 21.26,21.26Z" style="fill:#fff;"/><path id="rect5149-2-3-1" d="M656.756,1208.31l0,65.906c0,11.733 -9.526,21.26 -21.26,21.26l-29.763,-0c-11.734,-0 -21.26,-9.527 -21.26,-21.26l-0,-65.906c-0,-11.733 9.526,-21.26 21.26,-21.26l29.763,0c11.734,0 21.26,9.527 21.26,21.26Z" style="fill:#fff;"/><path id="rect5149-6-6" d="M839.591,1208.31l-0,65.906c-0,11.733 -9.526,21.26 -21.26,21.26l-29.764,-0c-11.733,-0 -21.26,-9.527 -21.26,-21.26l0,-65.906c0,-11.733 9.527,-21.26 21.26,-21.26l29.764,0c11.734,0 21.26,9.527 21.26,21.26Z" style="fill:#fff;"/><path id="rect5149-2-8-6" d="M1022.43,1208.31l-0,65.906c-0,11.733 -9.527,21.26 -21.26,21.26l-29.764,-0c-11.734,-0 -21.26,-9.527 -21.26,-21.26l0,-65.906c0,-11.733 9.526,-21.26 21.26,-21.26l29.764,0c11.733,0 21.26,9.527 21.26,21.26Z" style="fill:#fff;"/><path id="rect5149-4-4-6" d="M1205.26,1208.31l0,65.906c0,11.733 -9.526,21.26 -21.26,21.26l-29.763,-0c-11.734,-0 -21.26,-9.527 -21.26,-21.26l-0,-65.906c-0,-11.733 9.526,-21.26 21.26,-21.26l29.763,0c11.734,0 21.26,9.527 21.26,21.26Z" style="fill:#fff;"/><path id="rect5149-2-3-0-4" d="M1388.1,1208.31l-0,65.906c-0,11.733 -9.526,21.26 -21.26,21.26l-29.764,-0c-11.733,-0 -21.26,-9.527 -21.26,-21.26l0,-65.906c0,-11.733 9.527,-21.26 21.26,-21.26l29.764,0c11.734,0 21.26,9.527 21.26,21.26Z" style="fill:#fff;"/></svg>
